<?xml version="1.0" encoding="UTF-8" standalone="no"?>
<!-- Created with Inkscape (http://www.inkscape.org/) -->

<svg
   width="0.94999999in"
   height="1.3200001in"
   viewBox="0 0 24.13 33.528001"
   version="1.1"
   id="svg1"
   inkscape:version="1.4.4 (dcaf3e7d9e, 2026-05-05)"
   sodipodi:docname="leafrank_logo.svg"
   xmlns:inkscape="http://www.inkscape.org/namespaces/inkscape"
   xmlns:sodipodi="http://sodipodi.sourceforge.net/DTD/sodipodi-0.dtd"
   xmlns="http://www.w3.org/2000/svg"
   xmlns:svg="http://www.w3.org/2000/svg"
   xmlns:ns6="http://www.iki.fi/pav/software/textext/">
  <sodipodi:namedview
     id="namedview1"
     pagecolor="#ffffff"
     bordercolor="#000000"
     borderopacity="0.19607843"
     inkscape:showpageshadow="2"
     inkscape:pageopacity="0.0"
     inkscape:pagecheckerboard="0"
     inkscape:deskcolor="#d1d1d1"
     inkscape:document-units="mm"
     inkscape:zoom="1.5643378"
     inkscape:cx="40.592255"
     inkscape:cy="166.84376"
     inkscape:window-width="1920"
     inkscape:window-height="1131"
     inkscape:window-x="0"
     inkscape:window-y="0"
     inkscape:window-maximized="1"
     inkscape:current-layer="layer1" />
  <defs
     id="defs1">
    <marker
       style="overflow:visible"
       id="ArrowWideRounded"
       refX="0"
       refY="0"
       orient="auto-start-reverse"
       inkscape:stockid="Wide, rounded arrow"
       markerWidth="1"
       markerHeight="1"
       viewBox="0 0 1 1"
       inkscape:isstock="true"
       inkscape:collect="always"
       preserveAspectRatio="xMidYMid">
      <path
         style="fill:none;stroke:context-stroke;stroke-width:1;stroke-linecap:round"
         d="M 3,-3 0,0 3,3"
         transform="rotate(180,0.125,0)"
         sodipodi:nodetypes="ccc"
         id="path344" />
    </marker>
    <g
       id="g1886">
      <g
   id="g1885">
        <path
   d="M 4.84375,-6.1875 H 6.5 c 1.3125,0 1.8125,-0.765625 1.8125,-0.890625 0,-0.046875 -0.03125,-0.0625 -0.09375,-0.0625 -0.109375,0 -0.359375,0.09375 -0.609375,0.265625 C 7.53125,-6.8125 7.5,-6.8125 7.3125,-6.8125 H 2.953125 c -1.234375,0 -2.609375,1.078125 -2.609375,1.890625 0,0.0625 0,0.109375 0.078125,0.109375 0.234375,0 0.859375,-0.328125 0.890625,-0.5625 0,-0.171875 0.015625,-0.359375 0.21875,-0.609375 0.109375,-0.125 0.1875,-0.203125 0.625,-0.203125 h 1.984375 c -0.171875,0.109375 -0.21875,0.25 -0.234375,0.359375 L 2.765625,-1.3125 C 2.65625,-0.828125 2.4375,-0.203125 2.15625,0.453125 2.09375,0.5625 2.09375,0.59375 2.09375,0.609375 c 0,0.0625 0.046875,0.0625 0.09375,0.0625 0.1875,0 0.6875,-0.265625 0.828125,-0.46875 0.0625,-0.109375 0.5,-1.125 0.71875,-1.953125 z m 0,0"
   id="path1884" />

      </g>

    </g>
    <g
       id="g1891">
      <g
   id="g1890">
        <path
   d="m 4.078125,-2.296875 h 2.78125 C 7,-2.296875 7.1875,-2.296875 7.1875,-2.5 7.1875,-2.6875 7,-2.6875 6.859375,-2.6875 h -2.78125 v -2.796875 c 0,-0.140625 0,-0.328125 -0.203125,-0.328125 -0.203125,0 -0.203125,0.1875 -0.203125,0.328125 V -2.6875 h -2.78125 c -0.140625,0 -0.328125,0 -0.328125,0.1875 0,0.203125 0.1875,0.203125 0.328125,0.203125 h 2.78125 V 0.5 c 0,0.140625 0,0.328125 0.203125,0.328125 0.203125,0 0.203125,-0.1875 0.203125,-0.328125 z m 0,0"
   id="path1889" />

      </g>

    </g>
    <g
       id="g1909">
      <g
   id="g1908">
        <path
   d="M 4.84375,-6.1875 H 6.5 c 1.3125,0 1.8125,-0.765625 1.8125,-0.890625 0,-0.046875 -0.03125,-0.0625 -0.09375,-0.0625 -0.109375,0 -0.359375,0.09375 -0.609375,0.265625 C 7.53125,-6.8125 7.5,-6.8125 7.3125,-6.8125 H 2.953125 c -1.234375,0 -2.609375,1.078125 -2.609375,1.890625 0,0.0625 0,0.109375 0.078125,0.109375 0.234375,0 0.859375,-0.328125 0.890625,-0.5625 0,-0.171875 0.015625,-0.359375 0.21875,-0.609375 0.109375,-0.125 0.1875,-0.203125 0.625,-0.203125 h 1.984375 c -0.171875,0.109375 -0.21875,0.25 -0.234375,0.359375 L 2.765625,-1.3125 C 2.65625,-0.828125 2.4375,-0.203125 2.15625,0.453125 2.09375,0.5625 2.09375,0.59375 2.09375,0.609375 c 0,0.0625 0.046875,0.0625 0.09375,0.0625 0.1875,0 0.6875,-0.265625 0.828125,-0.46875 0.0625,-0.109375 0.5,-1.125 0.71875,-1.953125 z m 0,0"
   id="path1905" />

      </g>

    </g>
    <g
       id="g1914">
      <g
   id="g1913">
        <path
   d="m 6.5625,-2.296875 c 0.171875,0 0.359375,0 0.359375,-0.203125 0,-0.1875 -0.1875,-0.1875 -0.359375,-0.1875 H 1.171875 c -0.171875,0 -0.34375,0 -0.34375,0.1875 0,0.203125 0.171875,0.203125 0.34375,0.203125 z m 0,0"
   id="path1912" />

      </g>

    </g>
    <g
       id="g1920">
      <g
   id="g1919">
        <path
   d="M 4.84375,-6.1875 H 6.5 c 1.3125,0 1.8125,-0.765625 1.8125,-0.890625 0,-0.046875 -0.03125,-0.0625 -0.09375,-0.0625 -0.109375,0 -0.359375,0.09375 -0.609375,0.265625 C 7.53125,-6.8125 7.5,-6.8125 7.3125,-6.8125 H 2.953125 c -1.234375,0 -2.609375,1.078125 -2.609375,1.890625 0,0.0625 0,0.109375 0.078125,0.109375 0.234375,0 0.859375,-0.328125 0.890625,-0.5625 0,-0.171875 0.015625,-0.359375 0.21875,-0.609375 0.109375,-0.125 0.1875,-0.203125 0.625,-0.203125 h 1.984375 c -0.171875,0.109375 -0.21875,0.25 -0.234375,0.359375 L 2.765625,-1.3125 C 2.65625,-0.828125 2.4375,-0.203125 2.15625,0.453125 2.09375,0.5625 2.09375,0.59375 2.09375,0.609375 c 0,0.0625 0.046875,0.0625 0.09375,0.0625 0.1875,0 0.6875,-0.265625 0.828125,-0.46875 0.0625,-0.109375 0.5,-1.125 0.71875,-1.953125 z m 0,0"
   id="path1918" />

      </g>

    </g>
    <g
       id="g1925">
      <g
   id="g1924">
        <path
   d="m 6.5625,-2.296875 c 0.171875,0 0.359375,0 0.359375,-0.203125 0,-0.1875 -0.1875,-0.1875 -0.359375,-0.1875 H 1.171875 c -0.171875,0 -0.34375,0 -0.34375,0.1875 0,0.203125 0.171875,0.203125 0.34375,0.203125 z m 0,0"
   id="path1923" />

      </g>

    </g>
    <g
       id="g1901">
      <g
   id="g1900">
        <path
   d="m 4.8125,-6.65625 c 0,-0.046875 0.015625,-0.109375 0.015625,-0.15625 0,-0.09375 -0.0625,-0.109375 -0.109375,-0.109375 -0.109375,0 -0.109375,0.03125 -0.15625,0.203125 L 2.90625,-0.125 c -0.75,-0.09375 -1.125,-0.46875 -1.125,-1.125 0,-0.203125 0,-0.453125 0.53125,-1.84375 0.046875,-0.125 0.109375,-0.296875 0.109375,-0.5 0,-0.4375 -0.3125,-0.8125 -0.8125,-0.8125 -0.953125,0 -1.3125,1.453125 -1.3125,1.53125 0,0.109375 0.09375,0.109375 0.109375,0.109375 0.109375,0 0.109375,-0.03125 0.15625,-0.1875 0.28125,-0.9375 0.671875,-1.234375 1.015625,-1.234375 0.078125,0 0.25,0 0.25,0.3125 0,0.265625 -0.109375,0.515625 -0.234375,0.859375 C 1.109375,-1.75 1.109375,-1.5 1.109375,-1.328125 1.109375,-0.375 1.890625,0.03125 2.84375,0.09375 2.765625,0.453125 2.765625,0.46875 2.625,1 2.609375,1.109375 2.40625,1.90625 2.40625,1.9375 c 0,0.015625 0,0.109375 0.109375,0.109375 0.03125,0 0.078125,0 0.09375,-0.046875 0.03125,-0.015625 0.09375,-0.265625 0.125,-0.40625 l 0.375,-1.484375 c 0.375,0 1.25,0 2.1875,-1.0625 0.40625,-0.46875 0.609375,-0.90625 0.71875,-1.203125 0.09375,-0.25 0.3125,-1.109375 0.3125,-1.546875 0,-0.5625 -0.265625,-0.703125 -0.4375,-0.703125 -0.25,0 -0.5,0.265625 -0.5,0.484375 0,0.125 0.0625,0.1875 0.15625,0.265625 0.109375,0.109375 0.359375,0.359375 0.359375,0.84375 0,0.640625 -0.515625,1.453125 -0.875,1.8125 -0.875,0.890625 -1.515625,0.890625 -1.875,0.890625 z m 0,0"
   id="path1900" />

      </g>

    </g>
    <marker
       style="overflow:visible"
       id="ArrowWideRounded-2"
       refX="0"
       refY="0"
       orient="auto-start-reverse"
       inkscape:stockid="Wide, rounded arrow"
       markerWidth="1"
       markerHeight="1"
       viewBox="0 0 1 1"
       inkscape:isstock="true"
       inkscape:collect="always"
       preserveAspectRatio="xMidYMid">
      <path
         style="fill:none;stroke:context-stroke;stroke-width:1;stroke-linecap:round"
         d="M 3,-3 0,0 3,3"
         transform="rotate(180,0.125,0)"
         sodipodi:nodetypes="ccc"
         id="path344-7" />
    </marker>
    <g
       id="g2157">
      <g
   id="g2156">
        <path
   d="m 4.359375,-6.671875 c 0,-0.03125 0.03125,-0.140625 0.03125,-0.140625 0,-0.015625 0,-0.109375 -0.125,-0.109375 -0.09375,0 -0.109375,0.03125 -0.15625,0.203125 L 3.53125,-4.421875 c -1.578125,0.0625 -3.046875,1.375 -3.046875,2.734375 0,0.953125 0.703125,1.734375 1.921875,1.8125 C 2.328125,0.421875 2.25,0.75 2.171875,1.0625 c -0.125,0.46875 -0.21875,0.84375 -0.21875,0.875 0,0.09375 0.078125,0.109375 0.125,0.109375 C 2.125,2.046875 2.140625,2.03125 2.171875,2 2.1875,1.984375 2.25,1.75 2.28125,1.609375 L 2.65625,0.125 c 1.609375,-0.0625 3.0625,-1.40625 3.0625,-2.734375 0,-0.796875 -0.53125,-1.703125 -1.921875,-1.8125 z m -1.90625,6.578125 c -0.59375,-0.03125 -1.3125,-0.390625 -1.3125,-1.375 0,-1.203125 0.859375,-2.59375 2.34375,-2.734375 z m 1.28125,-4.109375 c 0.765625,0.046875 1.328125,0.5 1.328125,1.375 0,1.1875 -0.859375,2.609375 -2.34375,2.734375 z m 0,0"
   id="path2156" />

      </g>

    </g>
  </defs>
  <g
     inkscape:label="Layer 1"
     inkscape:groupmode="layer"
     id="layer1">
    <circle
       style="fill:#1f78b4;fill-opacity:1;stroke:#1b1918;stroke-width:0.22982;stroke-dasharray:none;stroke-opacity:1"
       id="circle1872"
       cx="18.95842"
       cy="26.350052"
       r="0.84702247" />
    <path
       style="opacity:0.7;fill:none;stroke:#868789;stroke-width:0.651244;stroke-miterlimit:0;stroke-dasharray:none;stroke-dashoffset:0;stroke-opacity:1"
       d="M 12.971806,4.2733476 V 14.304018"
       id="path1874" />
    <path
       style="opacity:0.7;fill:none;stroke:#868789;stroke-width:1.30249;stroke-miterlimit:0;stroke-dasharray:none;stroke-dashoffset:0;stroke-opacity:1"
       d="M 18.174177,14.929768 H 7.690962"
       id="path1875" />
    <circle
       style="fill:#a2798f;fill-opacity:1;stroke:#1b1918;stroke-width:0.414911;stroke-dasharray:none;stroke-opacity:1"
       id="circle1875"
       cx="12.989789"
       cy="14.895279"
       r="1.5291957" />
    <circle
       style="fill:#dfdfde;fill-opacity:1;stroke:#1b1918;stroke-width:0.229861;stroke-dasharray:none;stroke-opacity:1"
       id="circle1876"
       cx="12.941687"
       cy="3.7529442"
       r="0.84717429" />
    <path
       style="opacity:0.7;fill:none;stroke:#868789;stroke-width:0.651244;stroke-miterlimit:0;stroke-dasharray:none;stroke-dashoffset:0;stroke-opacity:1"
       d="M 16.486388,3.6777976 H 13.840965"
       id="path1876" />
    <path
       style="opacity:0.7;fill:none;stroke:#868789;stroke-width:0.651244;stroke-miterlimit:0;stroke-dasharray:none;stroke-dashoffset:0;stroke-opacity:1"
       d="m 18.940784,15.594048 v 10.03067"
       id="path1878" />
    <g
       id="g1882"
       transform="matrix(0.86832548,0,0,0.86832548,-64.382204,-159.55746)">
      <text
         xml:space="preserve"
         style="font-size:6.35px;writing-mode:lr-tb;direction:ltr;fill:#838486;fill-opacity:0.741176;stroke-width:0.264583"
         x="-89.005508"
         y="219.6404"
         id="text1881"
         transform="rotate(-45)"><tspan
           sodipodi:role="line"
           id="tspan1881"
           style="font-style:normal;font-variant:normal;font-weight:normal;font-stretch:normal;font-size:6.35px;font-family:'Myriad Pro';-inkscape-font-specification:'Myriad Pro';fill:#838486;fill-opacity:0.741176;stroke-width:0.264583"
           x="-89.005508"
           y="219.6404">...</tspan></text>
      <text
         xml:space="preserve"
         style="font-size:6.35px;writing-mode:lr-tb;direction:ltr;fill:#838486;fill-opacity:0.741176;stroke-width:0.264583"
         x="221.01199"
         y="83.588898"
         id="text1882"
         transform="rotate(45)"><tspan
           sodipodi:role="line"
           id="tspan1882"
           style="font-style:normal;font-variant:normal;font-weight:normal;font-stretch:normal;font-size:6.35px;font-family:'Myriad Pro';-inkscape-font-specification:'Myriad Pro';fill:#838486;fill-opacity:0.741176;stroke-width:0.264583"
           x="221.01199"
           y="83.588898">...</tspan></text>
    </g>
    <g
       id="g1884"
       transform="matrix(0.86832548,0,0,0.86832548,-64.382204,-159.55746)">
      <text
         xml:space="preserve"
         style="font-size:6.35px;writing-mode:lr-tb;direction:ltr;fill:#838486;fill-opacity:0.741176;stroke-width:0.264583"
         x="-203.98915"
         y="-67.145561"
         id="text1883"
         transform="rotate(-135)"><tspan
           sodipodi:role="line"
           id="tspan1883"
           style="font-style:normal;font-variant:normal;font-weight:normal;font-stretch:normal;font-size:6.35px;font-family:'Myriad Pro';-inkscape-font-specification:'Myriad Pro';fill:#838486;fill-opacity:0.741176;stroke-width:0.264583"
           x="-203.98915"
           y="-67.145561">...</tspan></text>
      <text
         xml:space="preserve"
         style="font-size:6.35px;writing-mode:lr-tb;direction:ltr;fill:#838486;fill-opacity:0.741176;stroke-width:0.264583"
         x="-65.773964"
         y="198.57254"
         id="text1884"
         transform="rotate(-45)"><tspan
           sodipodi:role="line"
           id="tspan1884"
           style="font-style:normal;font-variant:normal;font-weight:normal;font-stretch:normal;font-size:6.35px;font-family:'Myriad Pro';-inkscape-font-specification:'Myriad Pro';fill:#838486;fill-opacity:0.741176;stroke-width:0.264583"
           x="-65.773964"
           y="198.57254">...</tspan></text>
    </g>
    <g
       id="g1889"
       transform="matrix(0.30632613,0,0,0.30632613,18.854106,2.4769876)"
       ns6:version="1.12.0"
       ns6:texconverter="pdflatex"
       ns6:pdfconverter="inkscape"
       ns6:text="$\\mathcal{T}$"
       ns6:preamble="/usr/share/inkscape/extensions/textext/default_packages.tex"
       ns6:scale="1.0"
       ns6:alignment="middle center"
       ns6:inkscapeversion="1.4.3"
       ns6:jacobian_sqrt="0.352778"><defs
   id="defs1886">
    <g
   id="g4">
      <g
   id="g3">
        <path
   d="M 4.84375,-6.1875 H 6.5 c 1.3125,0 1.8125,-0.765625 1.8125,-0.890625 0,-0.046875 -0.03125,-0.0625 -0.09375,-0.0625 -0.109375,0 -0.359375,0.09375 -0.609375,0.265625 C 7.53125,-6.8125 7.5,-6.8125 7.3125,-6.8125 H 2.953125 c -1.234375,0 -2.609375,1.078125 -2.609375,1.890625 0,0.0625 0,0.109375 0.078125,0.109375 0.234375,0 0.859375,-0.328125 0.890625,-0.5625 0,-0.171875 0.015625,-0.359375 0.21875,-0.609375 0.109375,-0.125 0.1875,-0.203125 0.625,-0.203125 h 1.984375 c -0.171875,0.109375 -0.21875,0.25 -0.234375,0.359375 L 2.765625,-1.3125 C 2.65625,-0.828125 2.4375,-0.203125 2.15625,0.453125 2.09375,0.5625 2.09375,0.59375 2.09375,0.609375 c 0,0.0625 0.046875,0.0625 0.09375,0.0625 0.1875,0 0.6875,-0.265625 0.828125,-0.46875 0.0625,-0.109375 0.5,-1.125 0.71875,-1.953125 z m 0,0"
   id="path3" />

      </g>

    </g>

  </defs>

  <g
   fill="#000000"
   fill-opacity="1"
   id="g1888"
   transform="translate(-149.056,-127.624)">
    <g
   transform="translate(148.712,134.765)"
   id="g1887"><path
   d="M 4.84375,-6.1875 H 6.5 c 1.3125,0 1.8125,-0.765625 1.8125,-0.890625 0,-0.046875 -0.03125,-0.0625 -0.09375,-0.0625 -0.109375,0 -0.359375,0.09375 -0.609375,0.265625 C 7.53125,-6.8125 7.5,-6.8125 7.3125,-6.8125 H 2.953125 c -1.234375,0 -2.609375,1.078125 -2.609375,1.890625 0,0.0625 0,0.109375 0.078125,0.109375 0.234375,0 0.859375,-0.328125 0.890625,-0.5625 0,-0.171875 0.015625,-0.359375 0.21875,-0.609375 0.109375,-0.125 0.1875,-0.203125 0.625,-0.203125 h 1.984375 c -0.171875,0.109375 -0.21875,0.25 -0.234375,0.359375 L 2.765625,-1.3125 C 2.65625,-0.828125 2.4375,-0.203125 2.15625,0.453125 2.09375,0.5625 2.09375,0.59375 2.09375,0.609375 c 0,0.0625 0.046875,0.0625 0.09375,0.0625 0.1875,0 0.6875,-0.265625 0.828125,-0.46875 0.0625,-0.109375 0.5,-1.125 0.71875,-1.953125 z m 0,0"
   id="path1886" />

      </g>
</g>

</g>
    <circle
       style="fill:#dfdfde;fill-opacity:1;stroke:#1b1918;stroke-width:0.155592;stroke-dasharray:none;stroke-opacity:1"
       id="circle1889"
       cx="21.32489"
       cy="4.6789393"
       r="0.57344836" />
    <g
       id="g1894"
       transform="matrix(0.22229132,0,0,0.22229132,22.173976,3.9498776)"
       ns6:version="1.12.0"
       ns6:texconverter="pdflatex"
       ns6:pdfconverter="inkscape"
       ns6:text="$+$"
       ns6:preamble="/usr/share/inkscape/extensions/textext/default_packages.tex"
       ns6:scale="1.0"
       ns6:alignment="middle center"
       ns6:inkscapeversion="1.4.3"
       ns6:jacobian_sqrt="0.352778"><defs
   id="defs1891">
    <g
   id="g6">
      <g
   id="g5">
        <path
   d="m 4.078125,-2.296875 h 2.78125 C 7,-2.296875 7.1875,-2.296875 7.1875,-2.5 7.1875,-2.6875 7,-2.6875 6.859375,-2.6875 h -2.78125 v -2.796875 c 0,-0.140625 0,-0.328125 -0.203125,-0.328125 -0.203125,0 -0.203125,0.1875 -0.203125,0.328125 V -2.6875 h -2.78125 c -0.140625,0 -0.328125,0 -0.328125,0.1875 0,0.203125 0.1875,0.203125 0.328125,0.203125 h 2.78125 V 0.5 c 0,0.140625 0,0.328125 0.203125,0.328125 0.203125,0 0.203125,-0.1875 0.203125,-0.328125 z m 0,0"
   id="path4" />

      </g>

    </g>

  </defs>

  <g
   fill="#000000"
   fill-opacity="1"
   id="g1893"
   transform="translate(-149.275,-128.952)">
    <g
   transform="translate(148.712,134.765)"
   id="g1892"><path
   d="m 4.078125,-2.296875 h 2.78125 C 7,-2.296875 7.1875,-2.296875 7.1875,-2.5 7.1875,-2.6875 7,-2.6875 6.859375,-2.6875 h -2.78125 v -2.796875 c 0,-0.140625 0,-0.328125 -0.203125,-0.328125 -0.203125,0 -0.203125,0.1875 -0.203125,0.328125 V -2.6875 h -2.78125 c -0.140625,0 -0.328125,0 -0.328125,0.1875 0,0.203125 0.1875,0.203125 0.328125,0.203125 h 2.78125 V 0.5 c 0,0.140625 0,0.328125 0.203125,0.328125 0.203125,0 0.203125,-0.1875 0.203125,-0.328125 z m 0,0"
   id="path1891" />

      </g>
</g>

</g>
    <g
       id="g1918"
       transform="matrix(0.86832548,0,0,0.86832548,-65.058742,-159.24095)">
      <g
         id="g1912"
         transform="matrix(0.352778,0,0,0.352778,79.924552,218.208)"
         ns6:version="1.12.0"
         ns6:texconverter="pdflatex"
         ns6:pdfconverter="inkscape"
         ns6:text="$\\mathcal{T}$"
         ns6:preamble="/usr/share/inkscape/extensions/textext/default_packages.tex"
         ns6:scale="1.0"
         ns6:alignment="middle center"
         ns6:inkscapeversion="1.4.3"
         ns6:jacobian_sqrt="0.352778"><defs
   id="defs1909">
    <g
   id="g8">
      <g
   id="g7">
        <path
   d="M 4.84375,-6.1875 H 6.5 c 1.3125,0 1.8125,-0.765625 1.8125,-0.890625 0,-0.046875 -0.03125,-0.0625 -0.09375,-0.0625 -0.109375,0 -0.359375,0.09375 -0.609375,0.265625 C 7.53125,-6.8125 7.5,-6.8125 7.3125,-6.8125 H 2.953125 c -1.234375,0 -2.609375,1.078125 -2.609375,1.890625 0,0.0625 0,0.109375 0.078125,0.109375 0.234375,0 0.859375,-0.328125 0.890625,-0.5625 0,-0.171875 0.015625,-0.359375 0.21875,-0.609375 0.109375,-0.125 0.1875,-0.203125 0.625,-0.203125 h 1.984375 c -0.171875,0.109375 -0.21875,0.25 -0.234375,0.359375 L 2.765625,-1.3125 C 2.65625,-0.828125 2.4375,-0.203125 2.15625,0.453125 2.09375,0.5625 2.09375,0.59375 2.09375,0.609375 c 0,0.0625 0.046875,0.0625 0.09375,0.0625 0.1875,0 0.6875,-0.265625 0.828125,-0.46875 0.0625,-0.109375 0.5,-1.125 0.71875,-1.953125 z m 0,0"
   id="path6" />

      </g>

    </g>

  </defs>

  <g
   fill="#000000"
   fill-opacity="1"
   id="g1911"
   transform="translate(-149.056,-127.624)">
    <g
   transform="translate(148.712,134.765)"
   id="g1910"><path
   d="M 4.84375,-6.1875 H 6.5 c 1.3125,0 1.8125,-0.765625 1.8125,-0.890625 0,-0.046875 -0.03125,-0.0625 -0.09375,-0.0625 -0.109375,0 -0.359375,0.09375 -0.609375,0.265625 C 7.53125,-6.8125 7.5,-6.8125 7.3125,-6.8125 H 2.953125 c -1.234375,0 -2.609375,1.078125 -2.609375,1.890625 0,0.0625 0,0.109375 0.078125,0.109375 0.234375,0 0.859375,-0.328125 0.890625,-0.5625 0,-0.171875 0.015625,-0.359375 0.21875,-0.609375 0.109375,-0.125 0.1875,-0.203125 0.625,-0.203125 h 1.984375 c -0.171875,0.109375 -0.21875,0.25 -0.234375,0.359375 L 2.765625,-1.3125 C 2.65625,-0.828125 2.4375,-0.203125 2.15625,0.453125 2.09375,0.5625 2.09375,0.59375 2.09375,0.609375 c 0,0.0625 0.046875,0.0625 0.09375,0.0625 0.1875,0 0.6875,-0.265625 0.828125,-0.46875 0.0625,-0.109375 0.5,-1.125 0.71875,-1.953125 z m 0,0"
   id="path1909" />

      </g>
</g>

</g>
      <circle
         style="fill:#93c477;fill-opacity:0.917647;stroke:#1b1918;stroke-width:0.179186;stroke-dasharray:none;stroke-opacity:1"
         id="circle1912"
         cx="82.769974"
         cy="220.74371"
         r="0.66040713" />
      <g
         id="g1917"
         transform="matrix(0.29538462,0,0,0.29538462,83.894367,220.741)"
         ns6:version="1.12.0"
         ns6:texconverter="pdflatex"
         ns6:pdfconverter="inkscape"
         ns6:text="$-$"
         ns6:preamble="/usr/share/inkscape/extensions/textext/default_packages.tex"
         ns6:scale="1.0"
         ns6:alignment="middle center"
         ns6:inkscapeversion="1.4.3"
         ns6:jacobian_sqrt="0.352778"><defs
   id="defs1914">
    <g
   id="g10">
      <g
   id="g9">
        <path
   d="m 6.5625,-2.296875 c 0.171875,0 0.359375,0 0.359375,-0.203125 0,-0.1875 -0.1875,-0.1875 -0.359375,-0.1875 H 1.171875 c -0.171875,0 -0.34375,0 -0.34375,0.1875 0,0.203125 0.171875,0.203125 0.34375,0.203125 z m 0,0"
   id="path8" />

      </g>

    </g>

  </defs>

  <g
   fill="#000000"
   fill-opacity="1"
   id="g1916"
   transform="translate(-149.54,-132.077)">
    <g
   transform="translate(148.712,134.765)"
   id="g1915"><path
   d="m 6.5625,-2.296875 c 0.171875,0 0.359375,0 0.359375,-0.203125 0,-0.1875 -0.1875,-0.1875 -0.359375,-0.1875 H 1.171875 c -0.171875,0 -0.34375,0 -0.34375,0.1875 0,0.203125 0.171875,0.203125 0.34375,0.203125 z m 0,0"
   id="path1914" />

      </g>
</g>

</g>
    </g>
    <g
       id="g1929"
       transform="matrix(0.86832548,0,0,0.86832548,-64.382203,-159.04931)">
      <g
         id="g1923"
         transform="matrix(0.352778,0,0,0.352778,94.490703,217.9873)"
         ns6:version="1.12.0"
         ns6:texconverter="pdflatex"
         ns6:pdfconverter="inkscape"
         ns6:text="$\\mathcal{T}$"
         ns6:preamble="/usr/share/inkscape/extensions/textext/default_packages.tex"
         ns6:scale="1.0"
         ns6:alignment="middle center"
         ns6:inkscapeversion="1.4.3"
         ns6:jacobian_sqrt="0.352778"><defs
   id="defs1920">
    <g
   id="g12">
      <g
   id="g11">
        <path
   d="M 4.84375,-6.1875 H 6.5 c 1.3125,0 1.8125,-0.765625 1.8125,-0.890625 0,-0.046875 -0.03125,-0.0625 -0.09375,-0.0625 -0.109375,0 -0.359375,0.09375 -0.609375,0.265625 C 7.53125,-6.8125 7.5,-6.8125 7.3125,-6.8125 H 2.953125 c -1.234375,0 -2.609375,1.078125 -2.609375,1.890625 0,0.0625 0,0.109375 0.078125,0.109375 0.234375,0 0.859375,-0.328125 0.890625,-0.5625 0,-0.171875 0.015625,-0.359375 0.21875,-0.609375 0.109375,-0.125 0.1875,-0.203125 0.625,-0.203125 h 1.984375 c -0.171875,0.109375 -0.21875,0.25 -0.234375,0.359375 L 2.765625,-1.3125 C 2.65625,-0.828125 2.4375,-0.203125 2.15625,0.453125 2.09375,0.5625 2.09375,0.59375 2.09375,0.609375 c 0,0.0625 0.046875,0.0625 0.09375,0.0625 0.1875,0 0.6875,-0.265625 0.828125,-0.46875 0.0625,-0.109375 0.5,-1.125 0.71875,-1.953125 z m 0,0"
   id="path10" />

      </g>

    </g>

  </defs>

  <g
   fill="#000000"
   fill-opacity="1"
   id="g1922"
   transform="translate(-149.056,-127.624)">
    <g
   transform="translate(148.712,134.765)"
   id="g1921"><path
   d="M 4.84375,-6.1875 H 6.5 c 1.3125,0 1.8125,-0.765625 1.8125,-0.890625 0,-0.046875 -0.03125,-0.0625 -0.09375,-0.0625 -0.109375,0 -0.359375,0.09375 -0.609375,0.265625 C 7.53125,-6.8125 7.5,-6.8125 7.3125,-6.8125 H 2.953125 c -1.234375,0 -2.609375,1.078125 -2.609375,1.890625 0,0.0625 0,0.109375 0.078125,0.109375 0.234375,0 0.859375,-0.328125 0.890625,-0.5625 0,-0.171875 0.015625,-0.359375 0.21875,-0.609375 0.109375,-0.125 0.1875,-0.203125 0.625,-0.203125 h 1.984375 c -0.171875,0.109375 -0.21875,0.25 -0.234375,0.359375 L 2.765625,-1.3125 C 2.65625,-0.828125 2.4375,-0.203125 2.15625,0.453125 2.09375,0.5625 2.09375,0.59375 2.09375,0.609375 c 0,0.0625 0.046875,0.0625 0.09375,0.0625 0.1875,0 0.6875,-0.265625 0.828125,-0.46875 0.0625,-0.109375 0.5,-1.125 0.71875,-1.953125 z m 0,0"
   id="path1920" />

      </g>
</g>

</g>
      <circle
         style="fill:#1f78b4;fill-opacity:1;stroke:#1b1918;stroke-width:0.179186;stroke-dasharray:none;stroke-opacity:1"
         id="circle1923"
         cx="97.336121"
         cy="220.52301"
         r="0.66040713" />
      <g
         id="g1928"
         transform="matrix(0.29538462,0,0,0.29538462,98.460518,220.5203)"
         ns6:version="1.12.0"
         ns6:texconverter="pdflatex"
         ns6:pdfconverter="inkscape"
         ns6:text="$-$"
         ns6:preamble="/usr/share/inkscape/extensions/textext/default_packages.tex"
         ns6:scale="1.0"
         ns6:alignment="middle center"
         ns6:inkscapeversion="1.4.3"
         ns6:jacobian_sqrt="0.352778"><defs
   id="defs1925">
    <g
   id="g14">
      <g
   id="g13">
        <path
   d="m 6.5625,-2.296875 c 0.171875,0 0.359375,0 0.359375,-0.203125 0,-0.1875 -0.1875,-0.1875 -0.359375,-0.1875 H 1.171875 c -0.171875,0 -0.34375,0 -0.34375,0.1875 0,0.203125 0.171875,0.203125 0.34375,0.203125 z m 0,0"
   id="path12" />

      </g>

    </g>

  </defs>

  <g
   fill="#000000"
   fill-opacity="1"
   id="g1927"
   transform="translate(-149.54,-132.077)">
    <g
   transform="translate(148.712,134.765)"
   id="g1926"><path
   d="m 6.5625,-2.296875 c 0.171875,0 0.359375,0 0.359375,-0.203125 0,-0.1875 -0.1875,-0.1875 -0.359375,-0.1875 H 1.171875 c -0.171875,0 -0.34375,0 -0.34375,0.1875 0,0.203125 0.171875,0.203125 0.34375,0.203125 z m 0,0"
   id="path1925" />

      </g>
</g>

</g>
    </g>
    <path
       style="fill:#ffffff;fill-opacity:1;stroke:#1b1918;stroke-width:0.260498;stroke-miterlimit:0;stroke-dasharray:none;stroke-dashoffset:0;stroke-opacity:1;marker-end:url(#ArrowWideRounded)"
       d="M 18.109296,17.252328 H 8.426055"
       id="path2044" />
    <path
       style="fill:#ffffff;fill-opacity:1;stroke:#1b1918;stroke-width:0.260498;stroke-miterlimit:0;stroke-dasharray:none;stroke-dashoffset:0;stroke-opacity:1;marker-end:url(#ArrowWideRounded)"
       d="m 20.808559,25.668108 v -9.68324"
       id="path136" />
    <path
       style="fill:#ffffff;fill-opacity:1;stroke:#1b1918;stroke-width:0.260498;stroke-miterlimit:0;stroke-dasharray:none;stroke-dashoffset:0;stroke-opacity:1;marker-end:url(#ArrowWideRounded)"
       d="M 14.628216,4.7286976 V 12.892038"
       id="path139" />
    <g
       id="g1905"
       transform="matrix(0.30632613,0,0,0.30632613,11.685232,18.101448)"
       ns6:version="1.12.0"
       ns6:texconverter="pdflatex"
       ns6:pdfconverter="inkscape"
       ns6:text="$\\psi$"
       ns6:preamble="/usr/share/inkscape/extensions/textext/default_packages.tex"
       ns6:scale="1.0"
       ns6:alignment="middle center"
       ns6:inkscapeversion="1.4.3"
       ns6:jacobian_sqrt="0.352778"><defs
   id="defs1901">
    <g
   id="g16">
      <g
   id="g15">
        <path
   d="m 4.8125,-6.65625 c 0,-0.046875 0.015625,-0.109375 0.015625,-0.15625 0,-0.09375 -0.0625,-0.109375 -0.109375,-0.109375 -0.109375,0 -0.109375,0.03125 -0.15625,0.203125 L 2.90625,-0.125 c -0.75,-0.09375 -1.125,-0.46875 -1.125,-1.125 0,-0.203125 0,-0.453125 0.53125,-1.84375 0.046875,-0.125 0.109375,-0.296875 0.109375,-0.5 0,-0.4375 -0.3125,-0.8125 -0.8125,-0.8125 -0.953125,0 -1.3125,1.453125 -1.3125,1.53125 0,0.109375 0.09375,0.109375 0.109375,0.109375 0.109375,0 0.109375,-0.03125 0.15625,-0.1875 0.28125,-0.9375 0.671875,-1.234375 1.015625,-1.234375 0.078125,0 0.25,0 0.25,0.3125 0,0.265625 -0.109375,0.515625 -0.234375,0.859375 C 1.109375,-1.75 1.109375,-1.5 1.109375,-1.328125 1.109375,-0.375 1.890625,0.03125 2.84375,0.09375 2.765625,0.453125 2.765625,0.46875 2.625,1 2.609375,1.109375 2.40625,1.90625 2.40625,1.9375 c 0,0.015625 0,0.109375 0.109375,0.109375 0.03125,0 0.078125,0 0.09375,-0.046875 0.03125,-0.015625 0.09375,-0.265625 0.125,-0.40625 l 0.375,-1.484375 c 0.375,0 1.25,0 2.1875,-1.0625 0.40625,-0.46875 0.609375,-0.90625 0.71875,-1.203125 0.09375,-0.25 0.3125,-1.109375 0.3125,-1.546875 0,-0.5625 -0.265625,-0.703125 -0.4375,-0.703125 -0.25,0 -0.5,0.265625 -0.5,0.484375 0,0.125 0.0625,0.1875 0.15625,0.265625 0.109375,0.109375 0.359375,0.359375 0.359375,0.84375 0,0.640625 -0.515625,1.453125 -0.875,1.8125 -0.875,0.890625 -1.515625,0.890625 -1.875,0.890625 z m 0,0"
   id="path14" />

      </g>

    </g>

  </defs>

  <g
   fill="#000000"
   fill-opacity="1"
   id="g1904"
   transform="translate(-149.009,-127.843)">
    <g
   transform="translate(148.712,134.765)"
   id="g1902"><path
   d="m 4.8125,-6.65625 c 0,-0.046875 0.015625,-0.109375 0.015625,-0.15625 0,-0.09375 -0.0625,-0.109375 -0.109375,-0.109375 -0.109375,0 -0.109375,0.03125 -0.15625,0.203125 L 2.90625,-0.125 c -0.75,-0.09375 -1.125,-0.46875 -1.125,-1.125 0,-0.203125 0,-0.453125 0.53125,-1.84375 0.046875,-0.125 0.109375,-0.296875 0.109375,-0.5 0,-0.4375 -0.3125,-0.8125 -0.8125,-0.8125 -0.953125,0 -1.3125,1.453125 -1.3125,1.53125 0,0.109375 0.09375,0.109375 0.109375,0.109375 0.109375,0 0.109375,-0.03125 0.15625,-0.1875 0.28125,-0.9375 0.671875,-1.234375 1.015625,-1.234375 0.078125,0 0.25,0 0.25,0.3125 0,0.265625 -0.109375,0.515625 -0.234375,0.859375 C 1.109375,-1.75 1.109375,-1.5 1.109375,-1.328125 1.109375,-0.375 1.890625,0.03125 2.84375,0.09375 2.765625,0.453125 2.765625,0.46875 2.625,1 2.609375,1.109375 2.40625,1.90625 2.40625,1.9375 c 0,0.015625 0,0.109375 0.109375,0.109375 0.03125,0 0.078125,0 0.09375,-0.046875 0.03125,-0.015625 0.09375,-0.265625 0.125,-0.40625 l 0.375,-1.484375 c 0.375,0 1.25,0 2.1875,-1.0625 0.40625,-0.46875 0.609375,-0.90625 0.71875,-1.203125 0.09375,-0.25 0.3125,-1.109375 0.3125,-1.546875 0,-0.5625 -0.265625,-0.703125 -0.4375,-0.703125 -0.25,0 -0.5,0.265625 -0.5,0.484375 0,0.125 0.0625,0.1875 0.15625,0.265625 0.109375,0.109375 0.359375,0.359375 0.359375,0.84375 0,0.640625 -0.515625,1.453125 -0.875,1.8125 -0.875,0.890625 -1.515625,0.890625 -1.875,0.890625 z m 0,0"
   id="path1901" />

      </g>
</g>

</g>
    <path
       style="fill:none;stroke:#868789;stroke-width:0.69466;stroke-miterlimit:0;stroke-dasharray:none;stroke-dashoffset:0;stroke-opacity:1"
       d="M 15.089268,20.554008 H 13.299067"
       id="path1906" />
    <circle
       style="fill:#ddc48e;fill-opacity:1;stroke:#1b1918;stroke-width:0.229861;stroke-dasharray:none;stroke-opacity:1"
       id="circle1938"
       cx="18.912102"
       cy="14.917267"
       r="0.84717429" />
    <path
       style="fill:#ffffff;fill-opacity:1;stroke:#1b1918;stroke-width:0.260498;stroke-miterlimit:0;stroke-dasharray:none;stroke-dashoffset:0;stroke-opacity:1;marker-end:url(#ArrowWideRounded-2)"
       d="m 4.456749,24.793608 v -8.38095"
       id="path1979" />
    <path
       style="fill:none;stroke:#868789;stroke-width:1.30249;stroke-miterlimit:0;stroke-dasharray:none;stroke-dashoffset:0;stroke-opacity:1"
       d="m 6.40597,15.757548 v 10.03067"
       id="path1980" />
    <g
       id="g1982"
       transform="matrix(0.86832548,0,0,0.86832548,-64.747949,-158.57084)">
      <text
         xml:space="preserve"
         style="font-size:6.35px;writing-mode:lr-tb;direction:ltr;fill:#838486;fill-opacity:0.741176;stroke-width:0.264583"
         x="-99.157692"
         y="209.48825"
         id="text1981"
         transform="rotate(-45)"><tspan
           sodipodi:role="line"
           id="tspan1981"
           style="font-style:normal;font-variant:normal;font-weight:normal;font-stretch:normal;font-size:6.35px;font-family:'Myriad Pro';-inkscape-font-specification:'Myriad Pro';fill:#838486;fill-opacity:0.741176;stroke-width:0.264583"
           x="-99.157692"
           y="209.48825">...</tspan></text>
      <text
         xml:space="preserve"
         style="font-size:6.35px;writing-mode:lr-tb;direction:ltr;fill:#838486;fill-opacity:0.741176;stroke-width:0.264583"
         x="210.85985"
         y="93.741081"
         id="text1982"
         transform="rotate(45)"><tspan
           sodipodi:role="line"
           id="tspan1982"
           style="font-style:normal;font-variant:normal;font-weight:normal;font-stretch:normal;font-size:6.35px;font-family:'Myriad Pro';-inkscape-font-specification:'Myriad Pro';fill:#838486;fill-opacity:0.741176;stroke-width:0.264583"
           x="210.85985"
           y="93.741081">...</tspan></text>
    </g>
    <circle
       style="fill:#a13f55;fill-opacity:1;stroke:#1b1918;stroke-width:0.414911;stroke-dasharray:none;stroke-opacity:1"
       id="circle2125"
       cx="6.442853"
       cy="14.964867"
       r="1.5291953" />
    <circle
       style="fill:#92c376;fill-opacity:0.929412;stroke:#1b1918;stroke-width:0.414911;stroke-dasharray:none;stroke-opacity:1"
       id="circle2126"
       cx="6.400342"
       cy="26.397873"
       r="1.5291957" />
    <g
       id="g2160"
       transform="matrix(0.30632613,0,0,0.30632613,-0.65851706,19.962718)"
       ns6:version="1.12.0"
       ns6:texconverter="pdflatex"
       ns6:pdfconverter="inkscape"
       ns6:text="$\\phi$"
       ns6:preamble="/usr/share/inkscape/extensions/textext/default_packages.tex"
       ns6:scale="1.0"
       ns6:alignment="middle center"
       ns6:inkscapeversion="1.4.3"
       ns6:jacobian_sqrt="0.352778"><defs
   id="defs2157">
    <g
   id="g18">
      <g
   id="g17">
        <path
   d="m 4.359375,-6.671875 c 0,-0.03125 0.03125,-0.140625 0.03125,-0.140625 0,-0.015625 0,-0.109375 -0.125,-0.109375 -0.09375,0 -0.109375,0.03125 -0.15625,0.203125 L 3.53125,-4.421875 c -1.578125,0.0625 -3.046875,1.375 -3.046875,2.734375 0,0.953125 0.703125,1.734375 1.921875,1.8125 C 2.328125,0.421875 2.25,0.75 2.171875,1.0625 c -0.125,0.46875 -0.21875,0.84375 -0.21875,0.875 0,0.09375 0.078125,0.109375 0.125,0.109375 C 2.125,2.046875 2.140625,2.03125 2.171875,2 2.1875,1.984375 2.25,1.75 2.28125,1.609375 L 2.65625,0.125 c 1.609375,-0.0625 3.0625,-1.40625 3.0625,-2.734375 0,-0.796875 -0.53125,-1.703125 -1.921875,-1.8125 z m -1.90625,6.578125 c -0.59375,-0.03125 -1.3125,-0.390625 -1.3125,-1.375 0,-1.203125 0.859375,-2.59375 2.34375,-2.734375 z m 1.28125,-4.109375 c 0.765625,0.046875 1.328125,0.5 1.328125,1.375 0,1.1875 -0.859375,2.609375 -2.34375,2.734375 z m 0,0"
   id="path16" />

      </g>

    </g>

  </defs>

  <g
   fill="#000000"
   fill-opacity="1"
   id="g2159"
   transform="translate(-149.196,-127.843)">
    <g
   transform="translate(148.712,134.765)"
   id="g2158"><path
   d="m 8.8593723,-6.671875 c 0,-0.03125 0.03125,-0.140625 0.03125,-0.140625 0,-0.015625 0,-0.109375 -0.125,-0.109375 -0.09375,0 -0.109375,0.03125 -0.15625,0.203125 l -0.578125,2.296875 c -1.578125,0.0625 -3.046875,1.375 -3.046875,2.734375 0,0.953125 0.703125,1.734375 1.921875,1.8125 -0.078125,0.296875 -0.15625,0.625 -0.234375,0.9375 -0.125,0.46875 -0.21875,0.84375 -0.21875,0.875 0,0.09375 0.078125,0.109375 0.125,0.109375 0.046875,0 0.0625,-0.015625 0.09375,-0.046875 0.015625,-0.015625 0.078125,-0.25 0.109375,-0.390625 l 0.375,-1.484375 c 1.609375,-0.0625 3.0624997,-1.40625 3.0624997,-2.734375 0,-0.796875 -0.5312497,-1.703125 -1.9218747,-1.8125 z m -1.90625,6.578125 c -0.59375,-0.03125 -1.3125,-0.390625 -1.3125,-1.375 0,-1.203125 0.859375,-2.59375 2.34375,-2.734375 z m 1.28125,-4.109375 c 0.765625,0.046875 1.328125,0.5 1.328125,1.375 0,1.1875 -0.859375,2.609375 -2.34375,2.734375 z m 0,0"
   id="path2157" />

      </g>
</g>

</g>
    <path
       style="fill:none;stroke:#868789;stroke-width:0.69466;stroke-miterlimit:0;stroke-dasharray:none;stroke-dashoffset:0;stroke-opacity:1"
       d="m 2.946442,21.256908 v 1.7902"
       id="path2160" />
  </g>
</svg>
